<svg width="1024" height="1024" viewBox="0 0 1024 1024" fill="none" xmlns="http://www.w3.org/2000/svg">
  <!-- Background Circle -->
  <circle cx="512" cy="512" r="512" fill="#1E40AF"/>
  
  <!-- Inner Circle -->
  <circle cx="512" cy="512" r="450" fill="#1E3A8A"/>
  
  <!-- Letter U -->
  <path d="M280 350V650C280 750 350 800 450 800H574C674 800 744 750 744 650V350H644V650C644 700 600 730 550 730H474C424 730 380 700 380 650V350H280Z" fill="#F59E0B"/>
  
  <!-- Document Lines -->
  <rect x="320" y="250" width="384" height="40" rx="20" fill="#F59E0B" opacity="0.3"/>
  <rect x="320" y="310" width="300" height="30" rx="15" fill="#F59E0B" opacity="0.3"/>
  
  <!-- Decorative Elements -->
  <circle cx="512" cy="512" r="400" stroke="#F59E0B" stroke-width="2" opacity="0.2"/>
  <circle cx="512" cy="512" r="350" stroke="#F59E0B" stroke-width="2" opacity="0.1"/>
  
  <!-- Bottom Text -->
  <text x="512" y="900" font-family="Arial, sans-serif" font-size="48" font-weight="bold" fill="#F59E0B" text-anchor="middle">UJAMAA</text>
  <text x="512" y="950" font-family="Arial, sans-serif" font-size="32" fill="#94A3B8" text-anchor="middle">DOCS</text>
</svg>
